<svg xmlns="http://www.w3.org/2000/svg" width="618.956" height="618.956" viewBox="-10 -5 800 800" xmlns:v="https://vecta.io/nano"><path d="M389-5q-21 0-36 15l-73 73 92 92q17-6 34-2 17 4 29.5 16.5 12.5 12.5 16 29.5 3.5 17-1.5 34l88 88q17-5 34-1.5 17 3.5 30 16.5 18 18 18 43.5 0 25.5-18 43-18 17.5-43.5 17.5-25.5 0-43.5-17-13-14-16.5-32-3.5-18 3.5-35l-83-83v218q9 4 16 11 18 18 18 43.5 0 25.5-18 43.5-18 18-43.5 18-25.5 0-43-18-17.5-18-17.5-43.5 0-25.5 18-43.5 8-8 20-13V289q-12-4-20-13-14-13-17.5-31.5Q328 226 335 209l-90-91L5 358q-15 15-15 36.5Q-10 416 5 431l349 349q15 15 36.5 15 21.5 0 36.5-15l348-348q15-15 15-36.5 0-21.5-15-36.5L426 10Q411-5 389-5z" fill="#f64d26"/></svg>